G04 #@! TF.FileFunction,Copper,L1,Top,Signal*
%FSLAX46Y46*%
G04 Gerber Fmt 4.6, Leading zero omitted, Abs format (unit mm)*
G04 Created by KiCad (PCBNEW 4.0.4-stable) date 12/07/17 02:23:43*
%MOMM*%
%LPD*%
G01*
G04 APERTURE LIST*
%ADD10C,0.100000*%
%ADD11R,0.750000X0.300000*%
%ADD12R,0.420000X0.230000*%
%ADD13C,1.524000*%
%ADD14C,0.350000*%
%ADD15C,0.200000*%
%ADD16C,0.254000*%
G04 APERTURE END LIST*
D10*
D11*
X154350000Y-90100000D03*
X154350000Y-96920000D03*
X152500000Y-96920000D03*
X152500000Y-90100000D03*
D12*
X152335000Y-91310000D03*
X152335000Y-91710000D03*
X152335000Y-92110000D03*
X152335000Y-92510000D03*
X152335000Y-92910000D03*
X152335000Y-93310000D03*
X152335000Y-93710000D03*
X152335000Y-94110000D03*
X152335000Y-94510000D03*
X152335000Y-94910000D03*
X152335000Y-95310000D03*
X152335000Y-95710000D03*
X154515000Y-95710000D03*
X154515000Y-95310000D03*
X154515000Y-94910000D03*
X154515000Y-94510000D03*
X154515000Y-94110000D03*
X154515000Y-93710000D03*
X154515000Y-93310000D03*
X154515000Y-92910000D03*
X154515000Y-92510000D03*
X154515000Y-92110000D03*
X154515000Y-91710000D03*
X154515000Y-91310000D03*
D13*
X137600000Y-80600000D03*
X137600000Y-83140000D03*
X137600000Y-85680000D03*
X137600000Y-88220000D03*
X137600000Y-90760000D03*
X137600000Y-93300000D03*
X137600000Y-95840000D03*
X137600000Y-98380000D03*
X137600000Y-100920000D03*
X137600000Y-103460000D03*
X137600000Y-106000000D03*
X137600000Y-108540000D03*
X140140000Y-108540000D03*
X140140000Y-106000000D03*
X140140000Y-103460000D03*
X140140000Y-100920000D03*
X140140000Y-98380000D03*
X140140000Y-95840000D03*
X140140000Y-93300000D03*
X140140000Y-90760000D03*
X140140000Y-88220000D03*
X140140000Y-85680000D03*
X140140000Y-83140000D03*
X140140000Y-80600000D03*
D14*
X151500000Y-91300000D03*
X153000000Y-91700000D03*
X151500000Y-92100000D03*
X153000000Y-92500000D03*
X151500000Y-92900000D03*
X153000000Y-93300000D03*
X151500000Y-93700000D03*
X153000000Y-94100000D03*
X151500000Y-94500000D03*
X153000000Y-94900000D03*
X151500000Y-95300000D03*
X153000000Y-95700000D03*
X145800000Y-105700000D03*
X160700000Y-95700000D03*
X143900000Y-106200000D03*
X151700000Y-106100000D03*
X161100000Y-95300000D03*
X147200000Y-103400000D03*
X160700000Y-94900000D03*
X146300000Y-102800000D03*
X161100000Y-94500000D03*
X155800000Y-98400000D03*
X160700000Y-94100000D03*
X159400000Y-93700000D03*
X159100000Y-93300000D03*
X160700000Y-92900000D03*
X149800000Y-88200000D03*
X161100000Y-92500000D03*
X148300000Y-85700000D03*
X160700000Y-92100000D03*
X146500000Y-83000000D03*
X161100000Y-91700000D03*
X160700000Y-91300000D03*
D15*
X152335000Y-91310000D02*
X150910000Y-91310000D01*
X138800000Y-81800000D02*
X137600000Y-80600000D01*
X142600000Y-81800000D02*
X138800000Y-81800000D01*
X144700000Y-83900000D02*
X142600000Y-81800000D01*
X144700000Y-85100000D02*
X144700000Y-83900000D01*
X150910000Y-91310000D02*
X144700000Y-85100000D01*
X151490000Y-91310000D02*
X152335000Y-91310000D01*
X151500000Y-91300000D02*
X151490000Y-91310000D01*
X152335000Y-91710000D02*
X150810000Y-91710000D01*
X138960000Y-84500000D02*
X137600000Y-83140000D01*
X143600000Y-84500000D02*
X138960000Y-84500000D01*
X150810000Y-91710000D02*
X143600000Y-84500000D01*
X152335000Y-91710000D02*
X152990000Y-91710000D01*
X152990000Y-91710000D02*
X153000000Y-91700000D01*
X152335000Y-92110000D02*
X149310000Y-92110000D01*
X138820000Y-86900000D02*
X137600000Y-85680000D01*
X144100000Y-86900000D02*
X138820000Y-86900000D01*
X149310000Y-92110000D02*
X144100000Y-86900000D01*
X151490000Y-92110000D02*
X152335000Y-92110000D01*
X151500000Y-92100000D02*
X151490000Y-92110000D01*
X152335000Y-92510000D02*
X147710000Y-92510000D01*
X138780000Y-89400000D02*
X137600000Y-88220000D01*
X144600000Y-89400000D02*
X138780000Y-89400000D01*
X147710000Y-92510000D02*
X144600000Y-89400000D01*
X152335000Y-92510000D02*
X152990000Y-92510000D01*
X152990000Y-92510000D02*
X153000000Y-92500000D01*
X152335000Y-92910000D02*
X146210000Y-92910000D01*
X138840000Y-92000000D02*
X137600000Y-90760000D01*
X145300000Y-92000000D02*
X138840000Y-92000000D01*
X146210000Y-92910000D02*
X145300000Y-92000000D01*
X151490000Y-92910000D02*
X152335000Y-92910000D01*
X151500000Y-92900000D02*
X151490000Y-92910000D01*
X152335000Y-93310000D02*
X146190000Y-93310000D01*
X138800000Y-94500000D02*
X137600000Y-93300000D01*
X145000000Y-94500000D02*
X138800000Y-94500000D01*
X146190000Y-93310000D02*
X145000000Y-94500000D01*
X152335000Y-93310000D02*
X152990000Y-93310000D01*
X152990000Y-93310000D02*
X153000000Y-93300000D01*
X152335000Y-93710000D02*
X147690000Y-93710000D01*
X138860000Y-97100000D02*
X137600000Y-95840000D01*
X144300000Y-97100000D02*
X138860000Y-97100000D01*
X147690000Y-93710000D02*
X144300000Y-97100000D01*
X151490000Y-93710000D02*
X152335000Y-93710000D01*
X151500000Y-93700000D02*
X151490000Y-93710000D01*
X152335000Y-94110000D02*
X149310000Y-94110000D01*
X138820000Y-99600000D02*
X137600000Y-98380000D01*
X143820000Y-99600000D02*
X138820000Y-99600000D01*
X149310000Y-94110000D02*
X143820000Y-99600000D01*
X152335000Y-94110000D02*
X152990000Y-94110000D01*
X152990000Y-94110000D02*
X153000000Y-94100000D01*
X152335000Y-94510000D02*
X150590000Y-94510000D01*
X138780000Y-102100000D02*
X137600000Y-100920000D01*
X143000000Y-102100000D02*
X138780000Y-102100000D01*
X150590000Y-94510000D02*
X143000000Y-102100000D01*
X151490000Y-94510000D02*
X152335000Y-94510000D01*
X151500000Y-94500000D02*
X151490000Y-94510000D01*
X152335000Y-94910000D02*
X150890000Y-94910000D01*
X138840000Y-104700000D02*
X137600000Y-103460000D01*
X141100000Y-104700000D02*
X138840000Y-104700000D01*
X150890000Y-94910000D02*
X141100000Y-104700000D01*
X152335000Y-94910000D02*
X152990000Y-94910000D01*
X152990000Y-94910000D02*
X153000000Y-94900000D01*
X152335000Y-95310000D02*
X151390000Y-95310000D01*
X138800000Y-107200000D02*
X137600000Y-106000000D01*
X141400000Y-107200000D02*
X138800000Y-107200000D01*
X142900000Y-105700000D02*
X141400000Y-107200000D01*
X142900000Y-103800000D02*
X142900000Y-105700000D01*
X151390000Y-95310000D02*
X142900000Y-103800000D01*
X151490000Y-95310000D02*
X152335000Y-95310000D01*
X151500000Y-95300000D02*
X151490000Y-95310000D01*
X152335000Y-95710000D02*
X151690000Y-95710000D01*
X139060000Y-110000000D02*
X137600000Y-108540000D01*
X142000000Y-110000000D02*
X139060000Y-110000000D01*
X143400000Y-108600000D02*
X142000000Y-110000000D01*
X143400000Y-104000000D02*
X143400000Y-108600000D01*
X151690000Y-95710000D02*
X143400000Y-104000000D01*
X152335000Y-95710000D02*
X152990000Y-95710000D01*
X152990000Y-95710000D02*
X153000000Y-95700000D01*
X154515000Y-95710000D02*
X154910000Y-95710000D01*
X152900000Y-98600000D02*
X145800000Y-105700000D01*
X154700000Y-98600000D02*
X152900000Y-98600000D01*
X155600000Y-97700000D02*
X154700000Y-98600000D01*
X155600000Y-96400000D02*
X155600000Y-97700000D01*
X154910000Y-95710000D02*
X155600000Y-96400000D01*
X160700000Y-95700000D02*
X160690000Y-95710000D01*
X160690000Y-95710000D02*
X154515000Y-95710000D01*
X151600000Y-106200000D02*
X143900000Y-106200000D01*
X151700000Y-106100000D02*
X151600000Y-106200000D01*
X154515000Y-95310000D02*
X161090000Y-95310000D01*
X161090000Y-95310000D02*
X161100000Y-95300000D01*
X154515000Y-94910000D02*
X154190000Y-94910000D01*
X152500000Y-98100000D02*
X147200000Y-103400000D01*
X154300000Y-98100000D02*
X152500000Y-98100000D01*
X155100000Y-97300000D02*
X154300000Y-98100000D01*
X155100000Y-96700000D02*
X155100000Y-97300000D01*
X154800000Y-96400000D02*
X155100000Y-96700000D01*
X154500000Y-96400000D02*
X154800000Y-96400000D01*
X154000000Y-95900000D02*
X154500000Y-96400000D01*
X154000000Y-95100000D02*
X154000000Y-95900000D01*
X154190000Y-94910000D02*
X154000000Y-95100000D01*
X160700000Y-94900000D02*
X160690000Y-94910000D01*
X160690000Y-94910000D02*
X154515000Y-94910000D01*
X154515000Y-94510000D02*
X154090000Y-94510000D01*
X151500000Y-97600000D02*
X146300000Y-102800000D01*
X153300000Y-97600000D02*
X151500000Y-97600000D01*
X153600000Y-97300000D02*
X153300000Y-97600000D01*
X153600000Y-95000000D02*
X153600000Y-97300000D01*
X154090000Y-94510000D02*
X153600000Y-95000000D01*
X154515000Y-94510000D02*
X161090000Y-94510000D01*
X161090000Y-94510000D02*
X161100000Y-94500000D01*
X160700000Y-94100000D02*
X161400000Y-94100000D01*
X158900000Y-98400000D02*
X155800000Y-98400000D01*
X161600000Y-95700000D02*
X158900000Y-98400000D01*
X161600000Y-94300000D02*
X161600000Y-95700000D01*
X161400000Y-94100000D02*
X161600000Y-94300000D01*
X160700000Y-94100000D02*
X160690000Y-94110000D01*
X160690000Y-94110000D02*
X154515000Y-94110000D01*
X154515000Y-93710000D02*
X159390000Y-93710000D01*
X159390000Y-93710000D02*
X159400000Y-93700000D01*
X159100000Y-93300000D02*
X159090000Y-93310000D01*
X159090000Y-93310000D02*
X154515000Y-93310000D01*
X160700000Y-92900000D02*
X160690000Y-92910000D01*
X160690000Y-92910000D02*
X154515000Y-92910000D01*
X154515000Y-92510000D02*
X153910000Y-92510000D01*
X150700000Y-89100000D02*
X149800000Y-88200000D01*
X153300000Y-89100000D02*
X150700000Y-89100000D01*
X153600000Y-89400000D02*
X153300000Y-89100000D01*
X153600000Y-92200000D02*
X153600000Y-89400000D01*
X153910000Y-92510000D02*
X153600000Y-92200000D01*
X154515000Y-92510000D02*
X161090000Y-92510000D01*
X161090000Y-92510000D02*
X161100000Y-92500000D01*
X154515000Y-92110000D02*
X154110000Y-92110000D01*
X151200000Y-88600000D02*
X148300000Y-85700000D01*
X154300000Y-88600000D02*
X151200000Y-88600000D01*
X155300000Y-89600000D02*
X154300000Y-88600000D01*
X155300000Y-90200000D02*
X155300000Y-89600000D01*
X154700000Y-90800000D02*
X155300000Y-90200000D01*
X154300000Y-90800000D02*
X154700000Y-90800000D01*
X154000000Y-91100000D02*
X154300000Y-90800000D01*
X154000000Y-92000000D02*
X154000000Y-91100000D01*
X154110000Y-92110000D02*
X154000000Y-92000000D01*
X160700000Y-92100000D02*
X160690000Y-92110000D01*
X160690000Y-92110000D02*
X154515000Y-92110000D01*
X161100000Y-91000000D02*
X161100000Y-90900000D01*
X152500000Y-87500000D02*
X148000000Y-83000000D01*
X148000000Y-83000000D02*
X146500000Y-83000000D01*
X161100000Y-91000000D02*
X161100000Y-91700000D01*
X154500000Y-87500000D02*
X152500000Y-87500000D01*
X156100000Y-89100000D02*
X154500000Y-87500000D01*
X159300000Y-89100000D02*
X156100000Y-89100000D01*
X161100000Y-90900000D02*
X159300000Y-89100000D01*
X154515000Y-91710000D02*
X161090000Y-91710000D01*
X161090000Y-91710000D02*
X161100000Y-91700000D01*
X154515000Y-91310000D02*
X154890000Y-91310000D01*
X142300000Y-80600000D02*
X140140000Y-80600000D01*
X145700000Y-84000000D02*
X142300000Y-80600000D01*
X147900000Y-84000000D02*
X145700000Y-84000000D01*
X152100000Y-88200000D02*
X147900000Y-84000000D01*
X154500000Y-88200000D02*
X152100000Y-88200000D01*
X155700000Y-89400000D02*
X154500000Y-88200000D01*
X155700000Y-90500000D02*
X155700000Y-89400000D01*
X154890000Y-91310000D02*
X155700000Y-90500000D01*
X160700000Y-91300000D02*
X160690000Y-91310000D01*
X160690000Y-91310000D02*
X154515000Y-91310000D01*
D16*
G36*
X147605908Y-110190000D02*
X142849446Y-110190000D01*
X143919723Y-109119723D01*
X144079051Y-108881272D01*
X144091903Y-108816661D01*
X144135000Y-108600000D01*
X144135000Y-106979321D01*
X144242265Y-106935000D01*
X150860908Y-106935000D01*
X147605908Y-110190000D01*
X147605908Y-110190000D01*
G37*
X147605908Y-110190000D02*
X142849446Y-110190000D01*
X143919723Y-109119723D01*
X144079051Y-108881272D01*
X144091903Y-108816661D01*
X144135000Y-108600000D01*
X144135000Y-106979321D01*
X144242265Y-106935000D01*
X150860908Y-106935000D01*
X147605908Y-110190000D01*
G36*
X137320900Y-109936757D02*
X137876661Y-109937242D01*
X137934073Y-109913520D01*
X138210553Y-110190000D01*
X136810000Y-110190000D01*
X136810000Y-109724613D01*
X137320900Y-109936757D01*
X137320900Y-109936757D01*
G37*
X137320900Y-109936757D02*
X137876661Y-109937242D01*
X137934073Y-109913520D01*
X138210553Y-110190000D01*
X136810000Y-110190000D01*
X136810000Y-109724613D01*
X137320900Y-109936757D01*
G36*
X142665000Y-108295554D02*
X141695554Y-109265000D01*
X141351603Y-109265000D01*
X141536757Y-108819100D01*
X141537242Y-108263339D01*
X141401456Y-107934710D01*
X141681272Y-107879051D01*
X141919723Y-107719723D01*
X142665000Y-106974446D01*
X142665000Y-108295554D01*
X142665000Y-108295554D01*
G37*
X142665000Y-108295554D02*
X141695554Y-109265000D01*
X141351603Y-109265000D01*
X141536757Y-108819100D01*
X141537242Y-108263339D01*
X141401456Y-107934710D01*
X141681272Y-107879051D01*
X141919723Y-107719723D01*
X142665000Y-106974446D01*
X142665000Y-108295554D01*
G36*
X138870051Y-107955512D02*
X138861575Y-107935000D01*
X138878568Y-107935000D01*
X138870051Y-107955512D01*
X138870051Y-107955512D01*
G37*
X138870051Y-107955512D02*
X138861575Y-107935000D01*
X138878568Y-107935000D01*
X138870051Y-107955512D01*
G36*
X137015512Y-107269949D02*
X136810000Y-107354865D01*
X136810000Y-107184613D01*
X137015512Y-107269949D01*
X137015512Y-107269949D01*
G37*
X137015512Y-107269949D02*
X136810000Y-107354865D01*
X136810000Y-107184613D01*
X137015512Y-107269949D01*
G36*
X142165000Y-105395553D02*
X141536980Y-106023574D01*
X141537242Y-105723339D01*
X141392019Y-105371870D01*
X141619723Y-105219723D01*
X142165000Y-104674446D01*
X142165000Y-105395553D01*
X142165000Y-105395553D01*
G37*
X142165000Y-105395553D02*
X141536980Y-106023574D01*
X141537242Y-105723339D01*
X141392019Y-105371870D01*
X141619723Y-105219723D01*
X142165000Y-104674446D01*
X142165000Y-105395553D01*
G36*
X155340573Y-99086284D02*
X155638174Y-99209859D01*
X155960412Y-99210140D01*
X156142265Y-99135000D01*
X158660908Y-99135000D01*
X152270712Y-105525196D01*
X152159427Y-105413716D01*
X151861826Y-105290141D01*
X151539588Y-105289860D01*
X151241771Y-105412915D01*
X151189595Y-105465000D01*
X147074446Y-105465000D01*
X153204447Y-99335000D01*
X154700000Y-99335000D01*
X154981272Y-99279051D01*
X155219723Y-99119723D01*
X155296906Y-99042540D01*
X155340573Y-99086284D01*
X155340573Y-99086284D01*
G37*
X155340573Y-99086284D02*
X155638174Y-99209859D01*
X155960412Y-99210140D01*
X156142265Y-99135000D01*
X158660908Y-99135000D01*
X152270712Y-105525196D01*
X152159427Y-105413716D01*
X151861826Y-105290141D01*
X151539588Y-105289860D01*
X151241771Y-105412915D01*
X151189595Y-105465000D01*
X147074446Y-105465000D01*
X153204447Y-99335000D01*
X154700000Y-99335000D01*
X154981272Y-99279051D01*
X155219723Y-99119723D01*
X155296906Y-99042540D01*
X155340573Y-99086284D01*
G36*
X145489860Y-102960412D02*
X145612915Y-103258229D01*
X145840573Y-103486284D01*
X146138174Y-103609859D01*
X146410389Y-103610096D01*
X146512915Y-103858229D01*
X146557581Y-103902973D01*
X145522184Y-104938370D01*
X145341771Y-105012915D01*
X145113716Y-105240573D01*
X145020526Y-105465000D01*
X144242106Y-105465000D01*
X144135000Y-105420526D01*
X144135000Y-104304446D01*
X145489869Y-102949577D01*
X145489860Y-102960412D01*
X145489860Y-102960412D01*
G37*
X145489860Y-102960412D02*
X145612915Y-103258229D01*
X145840573Y-103486284D01*
X146138174Y-103609859D01*
X146410389Y-103610096D01*
X146512915Y-103858229D01*
X146557581Y-103902973D01*
X145522184Y-104938370D01*
X145341771Y-105012915D01*
X145113716Y-105240573D01*
X145020526Y-105465000D01*
X144242106Y-105465000D01*
X144135000Y-105420526D01*
X144135000Y-104304446D01*
X145489869Y-102949577D01*
X145489860Y-102960412D01*
G36*
X137015512Y-104729949D02*
X136810000Y-104814865D01*
X136810000Y-104644613D01*
X137015512Y-104729949D01*
X137015512Y-104729949D01*
G37*
X137015512Y-104729949D02*
X136810000Y-104814865D01*
X136810000Y-104644613D01*
X137015512Y-104729949D01*
G36*
X141537207Y-103223347D02*
X141537242Y-103183339D01*
X141393312Y-102835000D01*
X141925554Y-102835000D01*
X141537207Y-103223347D01*
X141537207Y-103223347D01*
G37*
X141537207Y-103223347D02*
X141537242Y-103183339D01*
X141393312Y-102835000D01*
X141925554Y-102835000D01*
X141537207Y-103223347D01*
G36*
X138870051Y-102875512D02*
X138853312Y-102835000D01*
X138886873Y-102835000D01*
X138870051Y-102875512D01*
X138870051Y-102875512D01*
G37*
X138870051Y-102875512D02*
X138853312Y-102835000D01*
X138886873Y-102835000D01*
X138870051Y-102875512D01*
G36*
X137015512Y-102189949D02*
X136810000Y-102274865D01*
X136810000Y-102104613D01*
X137015512Y-102189949D01*
X137015512Y-102189949D01*
G37*
X137015512Y-102189949D02*
X136810000Y-102274865D01*
X136810000Y-102104613D01*
X137015512Y-102189949D01*
G36*
X142695554Y-101365000D02*
X141467869Y-101365000D01*
X141536757Y-101199100D01*
X141537242Y-100643339D01*
X141409839Y-100335000D01*
X143725554Y-100335000D01*
X142695554Y-101365000D01*
X142695554Y-101365000D01*
G37*
X142695554Y-101365000D02*
X141467869Y-101365000D01*
X141536757Y-101199100D01*
X141537242Y-100643339D01*
X141409839Y-100335000D01*
X143725554Y-100335000D01*
X142695554Y-101365000D01*
G36*
X138870051Y-100335512D02*
X138869839Y-100335000D01*
X138870264Y-100335000D01*
X138870051Y-100335512D01*
X138870051Y-100335512D01*
G37*
X138870051Y-100335512D02*
X138869839Y-100335000D01*
X138870264Y-100335000D01*
X138870051Y-100335512D01*
G36*
X137015512Y-99649949D02*
X136810000Y-99734865D01*
X136810000Y-99564613D01*
X137015512Y-99649949D01*
X137015512Y-99649949D01*
G37*
X137015512Y-99649949D02*
X136810000Y-99734865D01*
X136810000Y-99564613D01*
X137015512Y-99649949D01*
G36*
X143515554Y-98865000D02*
X141451260Y-98865000D01*
X141536757Y-98659100D01*
X141537242Y-98103339D01*
X141426367Y-97835000D01*
X144300000Y-97835000D01*
X144581272Y-97779051D01*
X144642241Y-97738313D01*
X143515554Y-98865000D01*
X143515554Y-98865000D01*
G37*
X143515554Y-98865000D02*
X141451260Y-98865000D01*
X141536757Y-98659100D01*
X141537242Y-98103339D01*
X141426367Y-97835000D01*
X144300000Y-97835000D01*
X144581272Y-97779051D01*
X144642241Y-97738313D01*
X143515554Y-98865000D01*
G36*
X158595554Y-97665000D02*
X156335000Y-97665000D01*
X156335000Y-96445000D01*
X159815553Y-96445000D01*
X158595554Y-97665000D01*
X158595554Y-97665000D01*
G37*
X158595554Y-97665000D02*
X156335000Y-97665000D01*
X156335000Y-96445000D01*
X159815553Y-96445000D01*
X158595554Y-97665000D01*
G36*
X137015512Y-97109949D02*
X136810000Y-97194865D01*
X136810000Y-97024613D01*
X137015512Y-97109949D01*
X137015512Y-97109949D01*
G37*
X137015512Y-97109949D02*
X136810000Y-97194865D01*
X136810000Y-97024613D01*
X137015512Y-97109949D01*
G36*
X143995554Y-96365000D02*
X141434651Y-96365000D01*
X141536757Y-96119100D01*
X141537242Y-95563339D01*
X141401575Y-95235000D01*
X145000000Y-95235000D01*
X145156729Y-95203824D01*
X143995554Y-96365000D01*
X143995554Y-96365000D01*
G37*
X143995554Y-96365000D02*
X141434651Y-96365000D01*
X141536757Y-96119100D01*
X141537242Y-95563339D01*
X141401575Y-95235000D01*
X145000000Y-95235000D01*
X145156729Y-95203824D01*
X143995554Y-96365000D01*
G36*
X138870051Y-95255512D02*
X138861575Y-95235000D01*
X138878568Y-95235000D01*
X138870051Y-95255512D01*
X138870051Y-95255512D01*
G37*
X138870051Y-95255512D02*
X138861575Y-95235000D01*
X138878568Y-95235000D01*
X138870051Y-95255512D01*
G36*
X137015512Y-94569949D02*
X136810000Y-94654865D01*
X136810000Y-94484613D01*
X137015512Y-94569949D01*
X137015512Y-94569949D01*
G37*
X137015512Y-94569949D02*
X136810000Y-94654865D01*
X136810000Y-94484613D01*
X137015512Y-94569949D01*
G36*
X145360553Y-93100000D02*
X144695554Y-93765000D01*
X141459565Y-93765000D01*
X141536757Y-93579100D01*
X141537242Y-93023339D01*
X141418103Y-92735000D01*
X144995554Y-92735000D01*
X145360553Y-93100000D01*
X145360553Y-93100000D01*
G37*
X145360553Y-93100000D02*
X144695554Y-93765000D01*
X141459565Y-93765000D01*
X141536757Y-93579100D01*
X141537242Y-93023339D01*
X141418103Y-92735000D01*
X144995554Y-92735000D01*
X145360553Y-93100000D01*
G36*
X137015512Y-92029949D02*
X136810000Y-92114865D01*
X136810000Y-91944613D01*
X137015512Y-92029949D01*
X137015512Y-92029949D01*
G37*
X137015512Y-92029949D02*
X136810000Y-92114865D01*
X136810000Y-91944613D01*
X137015512Y-92029949D01*
G36*
X145456729Y-91296176D02*
X145300000Y-91265000D01*
X141442955Y-91265000D01*
X141536757Y-91039100D01*
X141537242Y-90483339D01*
X141393312Y-90135000D01*
X144295554Y-90135000D01*
X145456729Y-91296176D01*
X145456729Y-91296176D01*
G37*
X145456729Y-91296176D02*
X145300000Y-91265000D01*
X141442955Y-91265000D01*
X141536757Y-91039100D01*
X141537242Y-90483339D01*
X141393312Y-90135000D01*
X144295554Y-90135000D01*
X145456729Y-91296176D01*
G36*
X159735553Y-90575000D02*
X156420081Y-90575000D01*
X156435000Y-90500000D01*
X156435000Y-89835000D01*
X158995554Y-89835000D01*
X159735553Y-90575000D01*
X159735553Y-90575000D01*
G37*
X159735553Y-90575000D02*
X156420081Y-90575000D01*
X156435000Y-90500000D01*
X156435000Y-89835000D01*
X158995554Y-89835000D01*
X159735553Y-90575000D01*
G36*
X150418728Y-89779051D02*
X150700000Y-89835000D01*
X151490000Y-89835000D01*
X151490000Y-89866250D01*
X151493759Y-89870009D01*
X151477560Y-89950000D01*
X151477560Y-90250000D01*
X151492793Y-90330957D01*
X151490000Y-90333750D01*
X151490000Y-90376309D01*
X151510755Y-90426416D01*
X151521838Y-90485317D01*
X151524865Y-90490022D01*
X151339588Y-90489860D01*
X151190789Y-90551342D01*
X150418034Y-89778588D01*
X150418728Y-89779051D01*
X150418728Y-89779051D01*
G37*
X150418728Y-89779051D02*
X150700000Y-89835000D01*
X151490000Y-89835000D01*
X151490000Y-89866250D01*
X151493759Y-89870009D01*
X151477560Y-89950000D01*
X151477560Y-90250000D01*
X151492793Y-90330957D01*
X151490000Y-90333750D01*
X151490000Y-90376309D01*
X151510755Y-90426416D01*
X151521838Y-90485317D01*
X151524865Y-90490022D01*
X151339588Y-90489860D01*
X151190789Y-90551342D01*
X150418034Y-89778588D01*
X150418728Y-89779051D01*
G36*
X138870051Y-90175512D02*
X138853312Y-90135000D01*
X138886873Y-90135000D01*
X138870051Y-90175512D01*
X138870051Y-90175512D01*
G37*
X138870051Y-90175512D02*
X138853312Y-90135000D01*
X138886873Y-90135000D01*
X138870051Y-90175512D01*
G36*
X137015512Y-89489949D02*
X136810000Y-89574865D01*
X136810000Y-89404613D01*
X137015512Y-89489949D01*
X137015512Y-89489949D01*
G37*
X137015512Y-89489949D02*
X136810000Y-89574865D01*
X136810000Y-89404613D01*
X137015512Y-89489949D01*
G36*
X144881967Y-88721414D02*
X144881272Y-88720949D01*
X144600000Y-88665000D01*
X141467869Y-88665000D01*
X141536757Y-88499100D01*
X141537242Y-87943339D01*
X141409839Y-87635000D01*
X143795554Y-87635000D01*
X144881967Y-88721414D01*
X144881967Y-88721414D01*
G37*
X144881967Y-88721414D02*
X144881272Y-88720949D01*
X144600000Y-88665000D01*
X141467869Y-88665000D01*
X141536757Y-88499100D01*
X141537242Y-87943339D01*
X141409839Y-87635000D01*
X143795554Y-87635000D01*
X144881967Y-88721414D01*
G36*
X158560908Y-88365000D02*
X156404447Y-88365000D01*
X155019723Y-86980277D01*
X154781272Y-86820949D01*
X154500000Y-86765000D01*
X152804447Y-86765000D01*
X148519723Y-82480277D01*
X148281272Y-82320949D01*
X148000000Y-82265000D01*
X146842106Y-82265000D01*
X146661826Y-82190141D01*
X146339588Y-82189860D01*
X146041771Y-82312915D01*
X145813716Y-82540573D01*
X145690141Y-82838174D01*
X145690043Y-82950596D01*
X142849446Y-80110000D01*
X150305908Y-80110000D01*
X158560908Y-88365000D01*
X158560908Y-88365000D01*
G37*
X158560908Y-88365000D02*
X156404447Y-88365000D01*
X155019723Y-86980277D01*
X154781272Y-86820949D01*
X154500000Y-86765000D01*
X152804447Y-86765000D01*
X148519723Y-82480277D01*
X148281272Y-82320949D01*
X148000000Y-82265000D01*
X146842106Y-82265000D01*
X146661826Y-82190141D01*
X146339588Y-82189860D01*
X146041771Y-82312915D01*
X145813716Y-82540573D01*
X145690141Y-82838174D01*
X145690043Y-82950596D01*
X142849446Y-80110000D01*
X150305908Y-80110000D01*
X158560908Y-88365000D01*
G36*
X145700000Y-84735000D02*
X147595554Y-84735000D01*
X147864201Y-85003647D01*
X147841771Y-85012915D01*
X147613716Y-85240573D01*
X147490141Y-85538174D01*
X147489860Y-85860412D01*
X147612915Y-86158229D01*
X147840573Y-86386284D01*
X148022296Y-86461742D01*
X149207503Y-87646949D01*
X149113716Y-87740573D01*
X148990141Y-88038174D01*
X148989869Y-88350422D01*
X145435000Y-84795554D01*
X145435000Y-84682288D01*
X145700000Y-84735000D01*
X145700000Y-84735000D01*
G37*
X145700000Y-84735000D02*
X147595554Y-84735000D01*
X147864201Y-85003647D01*
X147841771Y-85012915D01*
X147613716Y-85240573D01*
X147490141Y-85538174D01*
X147489860Y-85860412D01*
X147612915Y-86158229D01*
X147840573Y-86386284D01*
X148022296Y-86461742D01*
X149207503Y-87646949D01*
X149113716Y-87740573D01*
X148990141Y-88038174D01*
X148989869Y-88350422D01*
X145435000Y-84795554D01*
X145435000Y-84682288D01*
X145700000Y-84735000D01*
G36*
X138870051Y-87635512D02*
X138869839Y-87635000D01*
X138870264Y-87635000D01*
X138870051Y-87635512D01*
X138870051Y-87635512D01*
G37*
X138870051Y-87635512D02*
X138869839Y-87635000D01*
X138870264Y-87635000D01*
X138870051Y-87635512D01*
G36*
X137015512Y-86949949D02*
X136810000Y-87034865D01*
X136810000Y-86864613D01*
X137015512Y-86949949D01*
X137015512Y-86949949D01*
G37*
X137015512Y-86949949D02*
X136810000Y-87034865D01*
X136810000Y-86864613D01*
X137015512Y-86949949D01*
G36*
X144256730Y-86196176D02*
X144100000Y-86165000D01*
X141451260Y-86165000D01*
X141536757Y-85959100D01*
X141537242Y-85403339D01*
X141467686Y-85235000D01*
X143295554Y-85235000D01*
X144256730Y-86196176D01*
X144256730Y-86196176D01*
G37*
X144256730Y-86196176D02*
X144100000Y-86165000D01*
X141451260Y-86165000D01*
X141536757Y-85959100D01*
X141537242Y-85403339D01*
X141467686Y-85235000D01*
X143295554Y-85235000D01*
X144256730Y-86196176D01*
G36*
X137015512Y-84409949D02*
X136810000Y-84494865D01*
X136810000Y-84324613D01*
X137015512Y-84409949D01*
X137015512Y-84409949D01*
G37*
X137015512Y-84409949D02*
X136810000Y-84494865D01*
X136810000Y-84324613D01*
X137015512Y-84409949D01*
G36*
X143525553Y-83765000D02*
X141393127Y-83765000D01*
X141536757Y-83419100D01*
X141537242Y-82863339D01*
X141401575Y-82535000D01*
X142295554Y-82535000D01*
X143525553Y-83765000D01*
X143525553Y-83765000D01*
G37*
X143525553Y-83765000D02*
X141393127Y-83765000D01*
X141536757Y-83419100D01*
X141537242Y-82863339D01*
X141401575Y-82535000D01*
X142295554Y-82535000D01*
X143525553Y-83765000D01*
G36*
X138870051Y-82555512D02*
X138861575Y-82535000D01*
X138878568Y-82535000D01*
X138870051Y-82555512D01*
X138870051Y-82555512D01*
G37*
X138870051Y-82555512D02*
X138861575Y-82535000D01*
X138878568Y-82535000D01*
X138870051Y-82555512D01*
G36*
X137015512Y-81869949D02*
X136810000Y-81954865D01*
X136810000Y-81784613D01*
X137015512Y-81869949D01*
X137015512Y-81869949D01*
G37*
X137015512Y-81869949D02*
X136810000Y-81954865D01*
X136810000Y-81784613D01*
X137015512Y-81869949D01*
M02*
