G04 #@! TF.FileFunction,Soldermask,Bot*
%FSLAX46Y46*%
G04 Gerber Fmt 4.6, Leading zero omitted, Abs format (unit mm)*
G04 Created by KiCad (PCBNEW 4.0.4-stable) date 12/07/17 02:23:43*
%MOMM*%
%LPD*%
G01*
G04 APERTURE LIST*
%ADD10C,0.100000*%
%ADD11R,1.000000X0.630000*%
%ADD12C,1.924000*%
G04 APERTURE END LIST*
D10*
D11*
X158505000Y-90910000D03*
X158505000Y-91310000D03*
X158505000Y-91710000D03*
X158505000Y-92110000D03*
X158505000Y-92510000D03*
X158505000Y-92910000D03*
X158505000Y-93310000D03*
X158505000Y-93710000D03*
X158505000Y-94110000D03*
X158505000Y-94510000D03*
X158505000Y-94910000D03*
X158505000Y-95310000D03*
X158505000Y-95710000D03*
X158505000Y-96110000D03*
X159985000Y-96110000D03*
X159985000Y-95710000D03*
X159985000Y-95310000D03*
X159985000Y-94910000D03*
X159985000Y-94510000D03*
X159985000Y-94110000D03*
X159985000Y-93710000D03*
X159985000Y-93310000D03*
X159985000Y-92910000D03*
X159985000Y-92510000D03*
X159985000Y-92110000D03*
X159985000Y-91710000D03*
X159985000Y-91310000D03*
X159985000Y-90910000D03*
D12*
X137600000Y-80600000D03*
X137600000Y-83140000D03*
X137600000Y-85680000D03*
X137600000Y-88220000D03*
X137600000Y-90760000D03*
X137600000Y-93300000D03*
X137600000Y-95840000D03*
X137600000Y-98380000D03*
X137600000Y-100920000D03*
X137600000Y-103460000D03*
X137600000Y-106000000D03*
X137600000Y-108540000D03*
X140140000Y-108540000D03*
X140140000Y-106000000D03*
X140140000Y-103460000D03*
X140140000Y-100920000D03*
X140140000Y-98380000D03*
X140140000Y-95840000D03*
X140140000Y-93300000D03*
X140140000Y-90760000D03*
X140140000Y-88220000D03*
X140140000Y-85680000D03*
X140140000Y-83140000D03*
X140140000Y-80600000D03*
M02*
