M48
;DRILL file {KiCad 4.0.4-stable} date 12/07/17 02:16:02
;FORMAT={-:-/ absolute / inch / decimal}
FMAT,2
INCH,TZ
T1C0.012
T2C0.030
%
G90
G05
M72
T1
X5.6654Y-4.1811
X5.7402Y-4.1614
X5.7598Y-4.0472
X5.7677Y-3.2677
X5.7953Y-4.0709
X5.8386Y-3.374
X5.8976Y-3.4724
X5.9646Y-3.5945
X5.9646Y-3.626
X5.9646Y-3.6575
X5.9646Y-3.689
X5.9646Y-3.7205
X5.9646Y-3.752
X5.9724Y-4.1772
X6.0236Y-3.6102
X6.0236Y-3.6417
X6.0236Y-3.6732
X6.0236Y-3.7047
X6.0236Y-3.7362
X6.0236Y-3.7677
X6.1339Y-3.874
X6.2638Y-3.6732
X6.2756Y-3.689
X6.3268Y-3.5945
X6.3268Y-3.626
X6.3268Y-3.6575
X6.3268Y-3.7047
X6.3268Y-3.7362
X6.3268Y-3.7677
X6.3425Y-3.6102
X6.3425Y-3.6417
X6.3425Y-3.7205
X6.3425Y-3.752
T2
X5.4173Y-3.1732
X5.4173Y-3.2732
X5.4173Y-3.3732
X5.4173Y-3.4732
X5.4173Y-3.5732
X5.4173Y-3.6732
X5.4173Y-3.7732
X5.4173Y-3.8732
X5.4173Y-3.9732
X5.4173Y-4.0732
X5.4173Y-4.1732
X5.4173Y-4.2732
X5.5173Y-3.1732
X5.5173Y-3.2732
X5.5173Y-3.3732
X5.5173Y-3.4732
X5.5173Y-3.5732
X5.5173Y-3.6732
X5.5173Y-3.7732
X5.5173Y-3.8732
X5.5173Y-3.9732
X5.5173Y-4.0732
X5.5173Y-4.1732
X5.5173Y-4.2732
T0
M30
