G04 #@! TF.FileFunction,Copper,L2,Bot,Signal*
%FSLAX46Y46*%
G04 Gerber Fmt 4.6, Leading zero omitted, Abs format (unit mm)*
G04 Created by KiCad (PCBNEW 4.0.4-stable) date 12/07/17 02:23:43*
%MOMM*%
%LPD*%
G01*
G04 APERTURE LIST*
%ADD10C,0.100000*%
%ADD11R,0.600000X0.230000*%
%ADD12C,1.524000*%
%ADD13C,0.350000*%
%ADD14C,0.200000*%
%ADD15C,0.254000*%
G04 APERTURE END LIST*
D10*
D11*
X158505000Y-90910000D03*
X158505000Y-91310000D03*
X158505000Y-91710000D03*
X158505000Y-92110000D03*
X158505000Y-92510000D03*
X158505000Y-92910000D03*
X158505000Y-93310000D03*
X158505000Y-93710000D03*
X158505000Y-94110000D03*
X158505000Y-94510000D03*
X158505000Y-94910000D03*
X158505000Y-95310000D03*
X158505000Y-95710000D03*
X158505000Y-96110000D03*
X159985000Y-96110000D03*
X159985000Y-95710000D03*
X159985000Y-95310000D03*
X159985000Y-94910000D03*
X159985000Y-94510000D03*
X159985000Y-94110000D03*
X159985000Y-93710000D03*
X159985000Y-93310000D03*
X159985000Y-92910000D03*
X159985000Y-92510000D03*
X159985000Y-92110000D03*
X159985000Y-91710000D03*
X159985000Y-91310000D03*
X159985000Y-90910000D03*
D12*
X137600000Y-80600000D03*
X137600000Y-83140000D03*
X137600000Y-85680000D03*
X137600000Y-88220000D03*
X137600000Y-90760000D03*
X137600000Y-93300000D03*
X137600000Y-95840000D03*
X137600000Y-98380000D03*
X137600000Y-100920000D03*
X137600000Y-103460000D03*
X137600000Y-106000000D03*
X137600000Y-108540000D03*
X140140000Y-108540000D03*
X140140000Y-106000000D03*
X140140000Y-103460000D03*
X140140000Y-100920000D03*
X140140000Y-98380000D03*
X140140000Y-95840000D03*
X140140000Y-93300000D03*
X140140000Y-90760000D03*
X140140000Y-88220000D03*
X140140000Y-85680000D03*
X140140000Y-83140000D03*
X140140000Y-80600000D03*
D13*
X151500000Y-91300000D03*
X153000000Y-91700000D03*
X151500000Y-92100000D03*
X153000000Y-92500000D03*
X151500000Y-92900000D03*
X153000000Y-93300000D03*
X151500000Y-93700000D03*
X153000000Y-94100000D03*
X151500000Y-94500000D03*
X153000000Y-94900000D03*
X151500000Y-95300000D03*
X153000000Y-95700000D03*
X145800000Y-105700000D03*
X160700000Y-95700000D03*
X143900000Y-106200000D03*
X151700000Y-106100000D03*
X161100000Y-95300000D03*
X147200000Y-103400000D03*
X160700000Y-94900000D03*
X146300000Y-102800000D03*
X161100000Y-94500000D03*
X155800000Y-98400000D03*
X160700000Y-94100000D03*
X159400000Y-93700000D03*
X159100000Y-93300000D03*
X160700000Y-92900000D03*
X149800000Y-88200000D03*
X161100000Y-92500000D03*
X148300000Y-85700000D03*
X160700000Y-92100000D03*
X146500000Y-83000000D03*
X161100000Y-91700000D03*
X160700000Y-91300000D03*
D14*
X158505000Y-91310000D02*
X151510000Y-91310000D01*
X151510000Y-91310000D02*
X151500000Y-91300000D01*
X153010000Y-91710000D02*
X158505000Y-91710000D01*
X153000000Y-91700000D02*
X153010000Y-91710000D01*
X158505000Y-92110000D02*
X151510000Y-92110000D01*
X151510000Y-92110000D02*
X151500000Y-92100000D01*
X153010000Y-92510000D02*
X158505000Y-92510000D01*
X153000000Y-92500000D02*
X153010000Y-92510000D01*
X158505000Y-92910000D02*
X151510000Y-92910000D01*
X151510000Y-92910000D02*
X151500000Y-92900000D01*
X153010000Y-93310000D02*
X158505000Y-93310000D01*
X153000000Y-93300000D02*
X153010000Y-93310000D01*
X158505000Y-93710000D02*
X151510000Y-93710000D01*
X151510000Y-93710000D02*
X151500000Y-93700000D01*
X153010000Y-94110000D02*
X158505000Y-94110000D01*
X153000000Y-94100000D02*
X153010000Y-94110000D01*
X158505000Y-94510000D02*
X151510000Y-94510000D01*
X151510000Y-94510000D02*
X151500000Y-94500000D01*
X153010000Y-94910000D02*
X158505000Y-94910000D01*
X153000000Y-94900000D02*
X153010000Y-94910000D01*
X158505000Y-95310000D02*
X151510000Y-95310000D01*
X151510000Y-95310000D02*
X151500000Y-95300000D01*
X153010000Y-95710000D02*
X158505000Y-95710000D01*
X153000000Y-95700000D02*
X153010000Y-95710000D01*
X142960000Y-108540000D02*
X140140000Y-108540000D01*
X145800000Y-105700000D02*
X142960000Y-108540000D01*
X159985000Y-95710000D02*
X160690000Y-95710000D01*
X160690000Y-95710000D02*
X160700000Y-95700000D01*
X161100000Y-95300000D02*
X161100000Y-96700000D01*
X143700000Y-106000000D02*
X140140000Y-106000000D01*
X143900000Y-106200000D02*
X143700000Y-106000000D01*
X161100000Y-96700000D02*
X151700000Y-106100000D01*
X161100000Y-95300000D02*
X161090000Y-95310000D01*
X161090000Y-95310000D02*
X159985000Y-95310000D01*
X147140000Y-103460000D02*
X140140000Y-103460000D01*
X147200000Y-103400000D02*
X147140000Y-103460000D01*
X159985000Y-94910000D02*
X160690000Y-94910000D01*
X160690000Y-94910000D02*
X160700000Y-94900000D01*
X141900000Y-102800000D02*
X140140000Y-101040000D01*
X146300000Y-102800000D02*
X141900000Y-102800000D01*
X140140000Y-101040000D02*
X140140000Y-100920000D01*
X161100000Y-94500000D02*
X161090000Y-94510000D01*
X161090000Y-94510000D02*
X159985000Y-94510000D01*
X155780000Y-98380000D02*
X140140000Y-98380000D01*
X155800000Y-98400000D02*
X155780000Y-98380000D01*
X159985000Y-94110000D02*
X160690000Y-94110000D01*
X160690000Y-94110000D02*
X160700000Y-94100000D01*
X159400000Y-93700000D02*
X159400000Y-96400000D01*
X144040000Y-95840000D02*
X140140000Y-95840000D01*
X145500000Y-97300000D02*
X144040000Y-95840000D01*
X158500000Y-97300000D02*
X145500000Y-97300000D01*
X159400000Y-96400000D02*
X158500000Y-97300000D01*
X159400000Y-93700000D02*
X159390000Y-93710000D01*
X159390000Y-93710000D02*
X159985000Y-93710000D01*
X159100000Y-93300000D02*
X159100000Y-90000000D01*
X147700000Y-93300000D02*
X140140000Y-93300000D01*
X151200000Y-89800000D02*
X147700000Y-93300000D01*
X158900000Y-89800000D02*
X151200000Y-89800000D01*
X159100000Y-90000000D02*
X158900000Y-89800000D01*
X159985000Y-93310000D02*
X159090000Y-93310000D01*
X159090000Y-93310000D02*
X159100000Y-93300000D01*
X161500000Y-91100000D02*
X159500000Y-89100000D01*
X161300000Y-92900000D02*
X161500000Y-92700000D01*
X161500000Y-92700000D02*
X161500000Y-91100000D01*
X140140000Y-90760000D02*
X148640000Y-90760000D01*
X161300000Y-92900000D02*
X160700000Y-92900000D01*
X150300000Y-89100000D02*
X148640000Y-90760000D01*
X159500000Y-89100000D02*
X150300000Y-89100000D01*
X159985000Y-92910000D02*
X160690000Y-92910000D01*
X160690000Y-92910000D02*
X160700000Y-92900000D01*
X149780000Y-88220000D02*
X140140000Y-88220000D01*
X149800000Y-88200000D02*
X149780000Y-88220000D01*
X140220000Y-88300000D02*
X140140000Y-88220000D01*
X161100000Y-92500000D02*
X161090000Y-92510000D01*
X161090000Y-92510000D02*
X159985000Y-92510000D01*
X148280000Y-85680000D02*
X140140000Y-85680000D01*
X148300000Y-85700000D02*
X148280000Y-85680000D01*
X159985000Y-92110000D02*
X160690000Y-92110000D01*
X160690000Y-92110000D02*
X160700000Y-92100000D01*
X146500000Y-83000000D02*
X145160000Y-83140000D01*
X140140000Y-83140000D02*
X145160000Y-83140000D01*
X161100000Y-91700000D02*
X161090000Y-91710000D01*
X161090000Y-91710000D02*
X159985000Y-91710000D01*
X159985000Y-91310000D02*
X160690000Y-91310000D01*
X160690000Y-91310000D02*
X160700000Y-91300000D01*
D15*
G36*
X151422184Y-105338370D02*
X151241771Y-105412915D01*
X151013716Y-105640573D01*
X150890141Y-105938174D01*
X150889860Y-106260412D01*
X151012915Y-106558229D01*
X151125199Y-106670709D01*
X147605908Y-110190000D01*
X136810000Y-110190000D01*
X136810000Y-109724613D01*
X137320900Y-109936757D01*
X137876661Y-109937242D01*
X138390303Y-109725010D01*
X138783629Y-109332370D01*
X138869949Y-109124488D01*
X138954990Y-109330303D01*
X139347630Y-109723629D01*
X139860900Y-109936757D01*
X140416661Y-109937242D01*
X140930303Y-109725010D01*
X141323629Y-109332370D01*
X141347451Y-109275000D01*
X142960000Y-109275000D01*
X143241272Y-109219051D01*
X143479723Y-109059723D01*
X146077818Y-106461629D01*
X146258229Y-106387085D01*
X146486284Y-106159427D01*
X146609859Y-105861826D01*
X146610140Y-105539588D01*
X146487085Y-105241771D01*
X146259427Y-105013716D01*
X145961826Y-104890141D01*
X145639588Y-104889860D01*
X145341771Y-105012915D01*
X145113716Y-105240573D01*
X145038258Y-105422295D01*
X144625591Y-105834962D01*
X144587085Y-105741771D01*
X144359427Y-105513716D01*
X144122581Y-105415369D01*
X143981272Y-105320949D01*
X143700000Y-105265000D01*
X141347861Y-105265000D01*
X141325010Y-105209697D01*
X140932370Y-104816371D01*
X140724488Y-104730051D01*
X140930303Y-104645010D01*
X141323629Y-104252370D01*
X141347451Y-104195000D01*
X147002390Y-104195000D01*
X147038174Y-104209859D01*
X147360412Y-104210140D01*
X147658229Y-104087085D01*
X147886284Y-103859427D01*
X148009859Y-103561826D01*
X148010140Y-103239588D01*
X147887085Y-102941771D01*
X147659427Y-102713716D01*
X147361826Y-102590141D01*
X147089611Y-102589904D01*
X146987085Y-102341771D01*
X146759427Y-102113716D01*
X146461826Y-101990141D01*
X146139588Y-101989860D01*
X145957735Y-102065000D01*
X142204447Y-102065000D01*
X141478601Y-101339155D01*
X141536757Y-101199100D01*
X141537242Y-100643339D01*
X141325010Y-100129697D01*
X140932370Y-99736371D01*
X140724488Y-99650051D01*
X140930303Y-99565010D01*
X141323629Y-99172370D01*
X141347451Y-99115000D01*
X155409729Y-99115000D01*
X155638174Y-99209859D01*
X155960412Y-99210140D01*
X156258229Y-99087085D01*
X156486284Y-98859427D01*
X156609859Y-98561826D01*
X156610140Y-98239588D01*
X156525606Y-98035000D01*
X158500000Y-98035000D01*
X158781272Y-97979051D01*
X158781966Y-97978587D01*
X151422184Y-105338370D01*
X151422184Y-105338370D01*
G37*
X151422184Y-105338370D02*
X151241771Y-105412915D01*
X151013716Y-105640573D01*
X150890141Y-105938174D01*
X150889860Y-106260412D01*
X151012915Y-106558229D01*
X151125199Y-106670709D01*
X147605908Y-110190000D01*
X136810000Y-110190000D01*
X136810000Y-109724613D01*
X137320900Y-109936757D01*
X137876661Y-109937242D01*
X138390303Y-109725010D01*
X138783629Y-109332370D01*
X138869949Y-109124488D01*
X138954990Y-109330303D01*
X139347630Y-109723629D01*
X139860900Y-109936757D01*
X140416661Y-109937242D01*
X140930303Y-109725010D01*
X141323629Y-109332370D01*
X141347451Y-109275000D01*
X142960000Y-109275000D01*
X143241272Y-109219051D01*
X143479723Y-109059723D01*
X146077818Y-106461629D01*
X146258229Y-106387085D01*
X146486284Y-106159427D01*
X146609859Y-105861826D01*
X146610140Y-105539588D01*
X146487085Y-105241771D01*
X146259427Y-105013716D01*
X145961826Y-104890141D01*
X145639588Y-104889860D01*
X145341771Y-105012915D01*
X145113716Y-105240573D01*
X145038258Y-105422295D01*
X144625591Y-105834962D01*
X144587085Y-105741771D01*
X144359427Y-105513716D01*
X144122581Y-105415369D01*
X143981272Y-105320949D01*
X143700000Y-105265000D01*
X141347861Y-105265000D01*
X141325010Y-105209697D01*
X140932370Y-104816371D01*
X140724488Y-104730051D01*
X140930303Y-104645010D01*
X141323629Y-104252370D01*
X141347451Y-104195000D01*
X147002390Y-104195000D01*
X147038174Y-104209859D01*
X147360412Y-104210140D01*
X147658229Y-104087085D01*
X147886284Y-103859427D01*
X148009859Y-103561826D01*
X148010140Y-103239588D01*
X147887085Y-102941771D01*
X147659427Y-102713716D01*
X147361826Y-102590141D01*
X147089611Y-102589904D01*
X146987085Y-102341771D01*
X146759427Y-102113716D01*
X146461826Y-101990141D01*
X146139588Y-101989860D01*
X145957735Y-102065000D01*
X142204447Y-102065000D01*
X141478601Y-101339155D01*
X141536757Y-101199100D01*
X141537242Y-100643339D01*
X141325010Y-100129697D01*
X140932370Y-99736371D01*
X140724488Y-99650051D01*
X140930303Y-99565010D01*
X141323629Y-99172370D01*
X141347451Y-99115000D01*
X155409729Y-99115000D01*
X155638174Y-99209859D01*
X155960412Y-99210140D01*
X156258229Y-99087085D01*
X156486284Y-98859427D01*
X156609859Y-98561826D01*
X156610140Y-98239588D01*
X156525606Y-98035000D01*
X158500000Y-98035000D01*
X158781272Y-97979051D01*
X158781966Y-97978587D01*
X151422184Y-105338370D01*
G36*
X138954990Y-106790303D02*
X139347630Y-107183629D01*
X139555512Y-107269949D01*
X139349697Y-107354990D01*
X138956371Y-107747630D01*
X138870051Y-107955512D01*
X138785010Y-107749697D01*
X138392370Y-107356371D01*
X138184488Y-107270051D01*
X138390303Y-107185010D01*
X138783629Y-106792370D01*
X138869949Y-106584488D01*
X138954990Y-106790303D01*
X138954990Y-106790303D01*
G37*
X138954990Y-106790303D02*
X139347630Y-107183629D01*
X139555512Y-107269949D01*
X139349697Y-107354990D01*
X138956371Y-107747630D01*
X138870051Y-107955512D01*
X138785010Y-107749697D01*
X138392370Y-107356371D01*
X138184488Y-107270051D01*
X138390303Y-107185010D01*
X138783629Y-106792370D01*
X138869949Y-106584488D01*
X138954990Y-106790303D01*
G36*
X143440573Y-106886284D02*
X143535042Y-106925511D01*
X142655554Y-107805000D01*
X141347861Y-107805000D01*
X141325010Y-107749697D01*
X140932370Y-107356371D01*
X140724488Y-107270051D01*
X140930303Y-107185010D01*
X141323629Y-106792370D01*
X141347451Y-106735000D01*
X143289552Y-106735000D01*
X143440573Y-106886284D01*
X143440573Y-106886284D01*
G37*
X143440573Y-106886284D02*
X143535042Y-106925511D01*
X142655554Y-107805000D01*
X141347861Y-107805000D01*
X141325010Y-107749697D01*
X140932370Y-107356371D01*
X140724488Y-107270051D01*
X140930303Y-107185010D01*
X141323629Y-106792370D01*
X141347451Y-106735000D01*
X143289552Y-106735000D01*
X143440573Y-106886284D01*
G36*
X137015512Y-107269949D02*
X136810000Y-107354865D01*
X136810000Y-107184613D01*
X137015512Y-107269949D01*
X137015512Y-107269949D01*
G37*
X137015512Y-107269949D02*
X136810000Y-107354865D01*
X136810000Y-107184613D01*
X137015512Y-107269949D01*
G36*
X138954990Y-104250303D02*
X139347630Y-104643629D01*
X139555512Y-104729949D01*
X139349697Y-104814990D01*
X138956371Y-105207630D01*
X138870051Y-105415512D01*
X138785010Y-105209697D01*
X138392370Y-104816371D01*
X138184488Y-104730051D01*
X138390303Y-104645010D01*
X138783629Y-104252370D01*
X138869949Y-104044488D01*
X138954990Y-104250303D01*
X138954990Y-104250303D01*
G37*
X138954990Y-104250303D02*
X139347630Y-104643629D01*
X139555512Y-104729949D01*
X139349697Y-104814990D01*
X138956371Y-105207630D01*
X138870051Y-105415512D01*
X138785010Y-105209697D01*
X138392370Y-104816371D01*
X138184488Y-104730051D01*
X138390303Y-104645010D01*
X138783629Y-104252370D01*
X138869949Y-104044488D01*
X138954990Y-104250303D01*
G36*
X137015512Y-104729949D02*
X136810000Y-104814865D01*
X136810000Y-104644613D01*
X137015512Y-104729949D01*
X137015512Y-104729949D01*
G37*
X137015512Y-104729949D02*
X136810000Y-104814865D01*
X136810000Y-104644613D01*
X137015512Y-104729949D01*
G36*
X138954990Y-101710303D02*
X139347630Y-102103629D01*
X139555512Y-102189949D01*
X139349697Y-102274990D01*
X138956371Y-102667630D01*
X138870051Y-102875512D01*
X138785010Y-102669697D01*
X138392370Y-102276371D01*
X138184488Y-102190051D01*
X138390303Y-102105010D01*
X138783629Y-101712370D01*
X138869949Y-101504488D01*
X138954990Y-101710303D01*
X138954990Y-101710303D01*
G37*
X138954990Y-101710303D02*
X139347630Y-102103629D01*
X139555512Y-102189949D01*
X139349697Y-102274990D01*
X138956371Y-102667630D01*
X138870051Y-102875512D01*
X138785010Y-102669697D01*
X138392370Y-102276371D01*
X138184488Y-102190051D01*
X138390303Y-102105010D01*
X138783629Y-101712370D01*
X138869949Y-101504488D01*
X138954990Y-101710303D01*
G36*
X137015512Y-102189949D02*
X136810000Y-102274865D01*
X136810000Y-102104613D01*
X137015512Y-102189949D01*
X137015512Y-102189949D01*
G37*
X137015512Y-102189949D02*
X136810000Y-102274865D01*
X136810000Y-102104613D01*
X137015512Y-102189949D01*
G36*
X138954990Y-99170303D02*
X139347630Y-99563629D01*
X139555512Y-99649949D01*
X139349697Y-99734990D01*
X138956371Y-100127630D01*
X138870051Y-100335512D01*
X138785010Y-100129697D01*
X138392370Y-99736371D01*
X138184488Y-99650051D01*
X138390303Y-99565010D01*
X138783629Y-99172370D01*
X138869949Y-98964488D01*
X138954990Y-99170303D01*
X138954990Y-99170303D01*
G37*
X138954990Y-99170303D02*
X139347630Y-99563629D01*
X139555512Y-99649949D01*
X139349697Y-99734990D01*
X138956371Y-100127630D01*
X138870051Y-100335512D01*
X138785010Y-100129697D01*
X138392370Y-99736371D01*
X138184488Y-99650051D01*
X138390303Y-99565010D01*
X138783629Y-99172370D01*
X138869949Y-98964488D01*
X138954990Y-99170303D01*
G36*
X137015512Y-99649949D02*
X136810000Y-99734865D01*
X136810000Y-99564613D01*
X137015512Y-99649949D01*
X137015512Y-99649949D01*
G37*
X137015512Y-99649949D02*
X136810000Y-99734865D01*
X136810000Y-99564613D01*
X137015512Y-99649949D01*
G36*
X138954990Y-96630303D02*
X139347630Y-97023629D01*
X139555512Y-97109949D01*
X139349697Y-97194990D01*
X138956371Y-97587630D01*
X138870051Y-97795512D01*
X138785010Y-97589697D01*
X138392370Y-97196371D01*
X138184488Y-97110051D01*
X138390303Y-97025010D01*
X138783629Y-96632370D01*
X138869949Y-96424488D01*
X138954990Y-96630303D01*
X138954990Y-96630303D01*
G37*
X138954990Y-96630303D02*
X139347630Y-97023629D01*
X139555512Y-97109949D01*
X139349697Y-97194990D01*
X138956371Y-97587630D01*
X138870051Y-97795512D01*
X138785010Y-97589697D01*
X138392370Y-97196371D01*
X138184488Y-97110051D01*
X138390303Y-97025010D01*
X138783629Y-96632370D01*
X138869949Y-96424488D01*
X138954990Y-96630303D01*
G36*
X144805553Y-97645000D02*
X141347861Y-97645000D01*
X141325010Y-97589697D01*
X140932370Y-97196371D01*
X140724488Y-97110051D01*
X140930303Y-97025010D01*
X141323629Y-96632370D01*
X141347451Y-96575000D01*
X143735554Y-96575000D01*
X144805553Y-97645000D01*
X144805553Y-97645000D01*
G37*
X144805553Y-97645000D02*
X141347861Y-97645000D01*
X141325010Y-97589697D01*
X140932370Y-97196371D01*
X140724488Y-97110051D01*
X140930303Y-97025010D01*
X141323629Y-96632370D01*
X141347451Y-96575000D01*
X143735554Y-96575000D01*
X144805553Y-97645000D01*
G36*
X137015512Y-97109949D02*
X136810000Y-97194865D01*
X136810000Y-97024613D01*
X137015512Y-97109949D01*
X137015512Y-97109949D01*
G37*
X137015512Y-97109949D02*
X136810000Y-97194865D01*
X136810000Y-97024613D01*
X137015512Y-97109949D01*
G36*
X150689860Y-91460412D02*
X150788947Y-91700223D01*
X150690141Y-91938174D01*
X150689860Y-92260412D01*
X150788947Y-92500223D01*
X150690141Y-92738174D01*
X150689860Y-93060412D01*
X150788947Y-93300223D01*
X150690141Y-93538174D01*
X150689860Y-93860412D01*
X150788947Y-94100223D01*
X150690141Y-94338174D01*
X150689860Y-94660412D01*
X150788947Y-94900223D01*
X150690141Y-95138174D01*
X150689860Y-95460412D01*
X150812915Y-95758229D01*
X151040573Y-95986284D01*
X151338174Y-96109859D01*
X151660412Y-96110140D01*
X151818063Y-96045000D01*
X152266130Y-96045000D01*
X152312915Y-96158229D01*
X152540573Y-96386284D01*
X152838174Y-96509859D01*
X153160412Y-96510140D01*
X153318063Y-96445000D01*
X157598956Y-96445000D01*
X157601838Y-96460317D01*
X157639208Y-96518391D01*
X157658514Y-96565000D01*
X145804447Y-96565000D01*
X144559723Y-95320277D01*
X144321272Y-95160949D01*
X144040000Y-95105000D01*
X141347861Y-95105000D01*
X141325010Y-95049697D01*
X140932370Y-94656371D01*
X140724488Y-94570051D01*
X140930303Y-94485010D01*
X141323629Y-94092370D01*
X141347451Y-94035000D01*
X147700000Y-94035000D01*
X147981272Y-93979051D01*
X148219723Y-93819723D01*
X150689957Y-91349490D01*
X150689860Y-91460412D01*
X150689860Y-91460412D01*
G37*
X150689860Y-91460412D02*
X150788947Y-91700223D01*
X150690141Y-91938174D01*
X150689860Y-92260412D01*
X150788947Y-92500223D01*
X150690141Y-92738174D01*
X150689860Y-93060412D01*
X150788947Y-93300223D01*
X150690141Y-93538174D01*
X150689860Y-93860412D01*
X150788947Y-94100223D01*
X150690141Y-94338174D01*
X150689860Y-94660412D01*
X150788947Y-94900223D01*
X150690141Y-95138174D01*
X150689860Y-95460412D01*
X150812915Y-95758229D01*
X151040573Y-95986284D01*
X151338174Y-96109859D01*
X151660412Y-96110140D01*
X151818063Y-96045000D01*
X152266130Y-96045000D01*
X152312915Y-96158229D01*
X152540573Y-96386284D01*
X152838174Y-96509859D01*
X153160412Y-96510140D01*
X153318063Y-96445000D01*
X157598956Y-96445000D01*
X157601838Y-96460317D01*
X157639208Y-96518391D01*
X157658514Y-96565000D01*
X145804447Y-96565000D01*
X144559723Y-95320277D01*
X144321272Y-95160949D01*
X144040000Y-95105000D01*
X141347861Y-95105000D01*
X141325010Y-95049697D01*
X140932370Y-94656371D01*
X140724488Y-94570051D01*
X140930303Y-94485010D01*
X141323629Y-94092370D01*
X141347451Y-94035000D01*
X147700000Y-94035000D01*
X147981272Y-93979051D01*
X148219723Y-93819723D01*
X150689957Y-91349490D01*
X150689860Y-91460412D01*
G36*
X138954990Y-94090303D02*
X139347630Y-94483629D01*
X139555512Y-94569949D01*
X139349697Y-94654990D01*
X138956371Y-95047630D01*
X138870051Y-95255512D01*
X138785010Y-95049697D01*
X138392370Y-94656371D01*
X138184488Y-94570051D01*
X138390303Y-94485010D01*
X138783629Y-94092370D01*
X138869949Y-93884488D01*
X138954990Y-94090303D01*
X138954990Y-94090303D01*
G37*
X138954990Y-94090303D02*
X139347630Y-94483629D01*
X139555512Y-94569949D01*
X139349697Y-94654990D01*
X138956371Y-95047630D01*
X138870051Y-95255512D01*
X138785010Y-95049697D01*
X138392370Y-94656371D01*
X138184488Y-94570051D01*
X138390303Y-94485010D01*
X138783629Y-94092370D01*
X138869949Y-93884488D01*
X138954990Y-94090303D01*
G36*
X137015512Y-94569949D02*
X136810000Y-94654865D01*
X136810000Y-94484613D01*
X137015512Y-94569949D01*
X137015512Y-94569949D01*
G37*
X137015512Y-94569949D02*
X136810000Y-94654865D01*
X136810000Y-94484613D01*
X137015512Y-94569949D01*
G36*
X138954990Y-91550303D02*
X139347630Y-91943629D01*
X139555512Y-92029949D01*
X139349697Y-92114990D01*
X138956371Y-92507630D01*
X138870051Y-92715512D01*
X138785010Y-92509697D01*
X138392370Y-92116371D01*
X138184488Y-92030051D01*
X138390303Y-91945010D01*
X138783629Y-91552370D01*
X138869949Y-91344488D01*
X138954990Y-91550303D01*
X138954990Y-91550303D01*
G37*
X138954990Y-91550303D02*
X139347630Y-91943629D01*
X139555512Y-92029949D01*
X139349697Y-92114990D01*
X138956371Y-92507630D01*
X138870051Y-92715512D01*
X138785010Y-92509697D01*
X138392370Y-92116371D01*
X138184488Y-92030051D01*
X138390303Y-91945010D01*
X138783629Y-91552370D01*
X138869949Y-91344488D01*
X138954990Y-91550303D01*
G36*
X147395554Y-92565000D02*
X141347861Y-92565000D01*
X141325010Y-92509697D01*
X140932370Y-92116371D01*
X140724488Y-92030051D01*
X140930303Y-91945010D01*
X141323629Y-91552370D01*
X141347451Y-91495000D01*
X148465554Y-91495000D01*
X147395554Y-92565000D01*
X147395554Y-92565000D01*
G37*
X147395554Y-92565000D02*
X141347861Y-92565000D01*
X141325010Y-92509697D01*
X140932370Y-92116371D01*
X140724488Y-92030051D01*
X140930303Y-91945010D01*
X141323629Y-91552370D01*
X141347451Y-91495000D01*
X148465554Y-91495000D01*
X147395554Y-92565000D01*
G36*
X137015512Y-92029949D02*
X136810000Y-92114865D01*
X136810000Y-91944613D01*
X137015512Y-92029949D01*
X137015512Y-92029949D01*
G37*
X137015512Y-92029949D02*
X136810000Y-92114865D01*
X136810000Y-91944613D01*
X137015512Y-92029949D01*
G36*
X157608569Y-90543110D02*
X157602111Y-90575000D01*
X151866189Y-90575000D01*
X151769858Y-90535000D01*
X157614110Y-90535000D01*
X157608569Y-90543110D01*
X157608569Y-90543110D01*
G37*
X157608569Y-90543110D02*
X157602111Y-90575000D01*
X151866189Y-90575000D01*
X151769858Y-90535000D01*
X157614110Y-90535000D01*
X157608569Y-90543110D01*
G36*
X138954990Y-89010303D02*
X139347630Y-89403629D01*
X139555512Y-89489949D01*
X139349697Y-89574990D01*
X138956371Y-89967630D01*
X138870051Y-90175512D01*
X138785010Y-89969697D01*
X138392370Y-89576371D01*
X138184488Y-89490051D01*
X138390303Y-89405010D01*
X138783629Y-89012370D01*
X138869949Y-88804488D01*
X138954990Y-89010303D01*
X138954990Y-89010303D01*
G37*
X138954990Y-89010303D02*
X139347630Y-89403629D01*
X139555512Y-89489949D01*
X139349697Y-89574990D01*
X138956371Y-89967630D01*
X138870051Y-90175512D01*
X138785010Y-89969697D01*
X138392370Y-89576371D01*
X138184488Y-89490051D01*
X138390303Y-89405010D01*
X138783629Y-89012370D01*
X138869949Y-88804488D01*
X138954990Y-89010303D01*
G36*
X148335554Y-90025000D02*
X141347861Y-90025000D01*
X141325010Y-89969697D01*
X140932370Y-89576371D01*
X140724488Y-89490051D01*
X140930303Y-89405010D01*
X141323629Y-89012370D01*
X141347451Y-88955000D01*
X149405553Y-88955000D01*
X148335554Y-90025000D01*
X148335554Y-90025000D01*
G37*
X148335554Y-90025000D02*
X141347861Y-90025000D01*
X141325010Y-89969697D01*
X140932370Y-89576371D01*
X140724488Y-89490051D01*
X140930303Y-89405010D01*
X141323629Y-89012370D01*
X141347451Y-88955000D01*
X149405553Y-88955000D01*
X148335554Y-90025000D01*
G36*
X137015512Y-89489949D02*
X136810000Y-89574865D01*
X136810000Y-89404613D01*
X137015512Y-89489949D01*
X137015512Y-89489949D01*
G37*
X137015512Y-89489949D02*
X136810000Y-89574865D01*
X136810000Y-89404613D01*
X137015512Y-89489949D01*
G36*
X158560908Y-88365000D02*
X150608541Y-88365000D01*
X150609859Y-88361826D01*
X150610140Y-88039588D01*
X150487085Y-87741771D01*
X150259427Y-87513716D01*
X149961826Y-87390141D01*
X149639588Y-87389860D01*
X149409331Y-87485000D01*
X141347861Y-87485000D01*
X141325010Y-87429697D01*
X140932370Y-87036371D01*
X140724488Y-86950051D01*
X140930303Y-86865010D01*
X141323629Y-86472370D01*
X141347451Y-86415000D01*
X147909729Y-86415000D01*
X148138174Y-86509859D01*
X148460412Y-86510140D01*
X148758229Y-86387085D01*
X148986284Y-86159427D01*
X149109859Y-85861826D01*
X149110140Y-85539588D01*
X148987085Y-85241771D01*
X148759427Y-85013716D01*
X148461826Y-84890141D01*
X148139588Y-84889860D01*
X148006138Y-84945000D01*
X141347861Y-84945000D01*
X141325010Y-84889697D01*
X140932370Y-84496371D01*
X140724488Y-84410051D01*
X140930303Y-84325010D01*
X141323629Y-83932370D01*
X141347451Y-83875000D01*
X145160000Y-83875000D01*
X145197899Y-83867461D01*
X145236375Y-83871021D01*
X146234365Y-83766754D01*
X146338174Y-83809859D01*
X146660412Y-83810140D01*
X146958229Y-83687085D01*
X147186284Y-83459427D01*
X147309859Y-83161826D01*
X147310140Y-82839588D01*
X147187085Y-82541771D01*
X146959427Y-82313716D01*
X146661826Y-82190141D01*
X146339588Y-82189860D01*
X146054860Y-82307507D01*
X145121710Y-82405000D01*
X141347861Y-82405000D01*
X141325010Y-82349697D01*
X140932370Y-81956371D01*
X140724488Y-81870051D01*
X140930303Y-81785010D01*
X141323629Y-81392370D01*
X141536757Y-80879100D01*
X141537242Y-80323339D01*
X141449092Y-80110000D01*
X150305908Y-80110000D01*
X158560908Y-88365000D01*
X158560908Y-88365000D01*
G37*
X158560908Y-88365000D02*
X150608541Y-88365000D01*
X150609859Y-88361826D01*
X150610140Y-88039588D01*
X150487085Y-87741771D01*
X150259427Y-87513716D01*
X149961826Y-87390141D01*
X149639588Y-87389860D01*
X149409331Y-87485000D01*
X141347861Y-87485000D01*
X141325010Y-87429697D01*
X140932370Y-87036371D01*
X140724488Y-86950051D01*
X140930303Y-86865010D01*
X141323629Y-86472370D01*
X141347451Y-86415000D01*
X147909729Y-86415000D01*
X148138174Y-86509859D01*
X148460412Y-86510140D01*
X148758229Y-86387085D01*
X148986284Y-86159427D01*
X149109859Y-85861826D01*
X149110140Y-85539588D01*
X148987085Y-85241771D01*
X148759427Y-85013716D01*
X148461826Y-84890141D01*
X148139588Y-84889860D01*
X148006138Y-84945000D01*
X141347861Y-84945000D01*
X141325010Y-84889697D01*
X140932370Y-84496371D01*
X140724488Y-84410051D01*
X140930303Y-84325010D01*
X141323629Y-83932370D01*
X141347451Y-83875000D01*
X145160000Y-83875000D01*
X145197899Y-83867461D01*
X145236375Y-83871021D01*
X146234365Y-83766754D01*
X146338174Y-83809859D01*
X146660412Y-83810140D01*
X146958229Y-83687085D01*
X147186284Y-83459427D01*
X147309859Y-83161826D01*
X147310140Y-82839588D01*
X147187085Y-82541771D01*
X146959427Y-82313716D01*
X146661826Y-82190141D01*
X146339588Y-82189860D01*
X146054860Y-82307507D01*
X145121710Y-82405000D01*
X141347861Y-82405000D01*
X141325010Y-82349697D01*
X140932370Y-81956371D01*
X140724488Y-81870051D01*
X140930303Y-81785010D01*
X141323629Y-81392370D01*
X141536757Y-80879100D01*
X141537242Y-80323339D01*
X141449092Y-80110000D01*
X150305908Y-80110000D01*
X158560908Y-88365000D01*
G36*
X138954990Y-86470303D02*
X139347630Y-86863629D01*
X139555512Y-86949949D01*
X139349697Y-87034990D01*
X138956371Y-87427630D01*
X138870051Y-87635512D01*
X138785010Y-87429697D01*
X138392370Y-87036371D01*
X138184488Y-86950051D01*
X138390303Y-86865010D01*
X138783629Y-86472370D01*
X138869949Y-86264488D01*
X138954990Y-86470303D01*
X138954990Y-86470303D01*
G37*
X138954990Y-86470303D02*
X139347630Y-86863629D01*
X139555512Y-86949949D01*
X139349697Y-87034990D01*
X138956371Y-87427630D01*
X138870051Y-87635512D01*
X138785010Y-87429697D01*
X138392370Y-87036371D01*
X138184488Y-86950051D01*
X138390303Y-86865010D01*
X138783629Y-86472370D01*
X138869949Y-86264488D01*
X138954990Y-86470303D01*
G36*
X137015512Y-86949949D02*
X136810000Y-87034865D01*
X136810000Y-86864613D01*
X137015512Y-86949949D01*
X137015512Y-86949949D01*
G37*
X137015512Y-86949949D02*
X136810000Y-87034865D01*
X136810000Y-86864613D01*
X137015512Y-86949949D01*
G36*
X138954990Y-83930303D02*
X139347630Y-84323629D01*
X139555512Y-84409949D01*
X139349697Y-84494990D01*
X138956371Y-84887630D01*
X138870051Y-85095512D01*
X138785010Y-84889697D01*
X138392370Y-84496371D01*
X138184488Y-84410051D01*
X138390303Y-84325010D01*
X138783629Y-83932370D01*
X138869949Y-83724488D01*
X138954990Y-83930303D01*
X138954990Y-83930303D01*
G37*
X138954990Y-83930303D02*
X139347630Y-84323629D01*
X139555512Y-84409949D01*
X139349697Y-84494990D01*
X138956371Y-84887630D01*
X138870051Y-85095512D01*
X138785010Y-84889697D01*
X138392370Y-84496371D01*
X138184488Y-84410051D01*
X138390303Y-84325010D01*
X138783629Y-83932370D01*
X138869949Y-83724488D01*
X138954990Y-83930303D01*
G36*
X137015512Y-84409949D02*
X136810000Y-84494865D01*
X136810000Y-84324613D01*
X137015512Y-84409949D01*
X137015512Y-84409949D01*
G37*
X137015512Y-84409949D02*
X136810000Y-84494865D01*
X136810000Y-84324613D01*
X137015512Y-84409949D01*
G36*
X138954990Y-81390303D02*
X139347630Y-81783629D01*
X139555512Y-81869949D01*
X139349697Y-81954990D01*
X138956371Y-82347630D01*
X138870051Y-82555512D01*
X138785010Y-82349697D01*
X138392370Y-81956371D01*
X138184488Y-81870051D01*
X138390303Y-81785010D01*
X138783629Y-81392370D01*
X138869949Y-81184488D01*
X138954990Y-81390303D01*
X138954990Y-81390303D01*
G37*
X138954990Y-81390303D02*
X139347630Y-81783629D01*
X139555512Y-81869949D01*
X139349697Y-81954990D01*
X138956371Y-82347630D01*
X138870051Y-82555512D01*
X138785010Y-82349697D01*
X138392370Y-81956371D01*
X138184488Y-81870051D01*
X138390303Y-81785010D01*
X138783629Y-81392370D01*
X138869949Y-81184488D01*
X138954990Y-81390303D01*
G36*
X137015512Y-81869949D02*
X136810000Y-81954865D01*
X136810000Y-81784613D01*
X137015512Y-81869949D01*
X137015512Y-81869949D01*
G37*
X137015512Y-81869949D02*
X136810000Y-81954865D01*
X136810000Y-81784613D01*
X137015512Y-81869949D01*
M02*
